# xmcd CD database file
#
# Track frame offsets:
#	150
#	27313
#	48379
#	71879
#	88697
#	104697
#	117153
#	142998
#	158114
#	181845
#	196934
#	209275
#	225021
#	243755
#	264483
#	279065
#	289238
#
# Disc length: 4036 seconds
#
# Revision: 2
# Processed by: cddbd v1.4b41PL1 Copyright (c) Steve Scherf et al.
# Submitted via: Feurio! 1.60 - http://www.feurio.com
#
DISCID=e70fc211,f70fc211
DTITLE=Various Artist - Harry II
DYEAR=1900
DGENRE=
TTITLE0=Jamiroquai - Too Young To Die
TTITLE1=Morcheeba - Blind Fold
TTITLE2=David Bowie - Space Oddity
TTITLE3=Bruce Springsteen - Sad Eyes
TTITLE4=Aretha Franklin - I say a little prayer
TTITLE5=The Police - Can't staand  losing you
TTITLE6=Babe Ruth - The mexican
TTITLE7=Toots and the maytals - 54-46 was my  number
TTITLE8=James Brown - Sex  machine
TTITLE9=James Brown - Soul Power
TTITLE10=James Brown - It's a man's sorlld
TTITLE11=Stephen Wolf - Born to be wild
TTITLE12=Free - All right now
TTITLE13=Lynyrd Snynyrd - Sweet home Alabhama
TTITLE14=Velvet Underground - Sweet jane
TTITLE15=The Animals  - Don't let me Misunders tood
TTITLE16=Van Morrison - Brown leyed Girl
EXTD=
EXTT0=
EXTT1=
EXTT2=
EXTT3=
EXTT4=
EXTT5=
EXTT6=
EXTT7=
EXTT8=
EXTT9=
EXTT10=
EXTT11=
EXTT12=
EXTT13=
EXTT14=
EXTT15=
EXTT16=
PLAYORDER=
